<?xml version="1.0" standalone="no"?>
<!DOCTYPE svg >
<svg version="1.0" xmlns="http://www.w3.org/2000/svg"
 width="855.000000pt" height="679.000000pt" viewBox="0 0 855.000000 679.000000"
 preserveAspectRatio="xMidYMid meet">
<g transform="translate(0.000000,679.000000) scale(0.100000,-0.100000)"
fill="#000000" stroke="none" fill-opacity="0.2">
<path d="M3600 6765 c-303 -39 -625 -145 -874 -288 -192 -110 -313 -204 -487
-377 -249 -247 -399 -469 -526 -777 l-22 -53 -114 0 c-126 0 -281 -24 -417
-64 -553 -162 -984 -634 -1111 -1215 -26 -120 -37 -419 -20 -544 77 -545 407
-1001 907 -1250 101 -51 296 -114 427 -139 109 -21 143 -21 1115 -25 l1002 -4
0 250 0 251 -932 0 c-931 0 -1045 4 -1173 36 -550 139 -913 651 -855 1207 25
241 128 461 297 638 176 184 364 288 615 340 125 25 307 22 488 -9 63 -11 116
-18 118 -17 1 1 24 73 51 161 76 246 151 409 270 586 326 488 862 784 1454
805 195 7 326 -6 497 -48 397 -96 696 -284 997 -625 l116 -132 181 93 c202
103 399 174 557 200 188 30 436 17 636 -34 504 -129 934 -517 1114 -1002 77
-210 103 -382 96 -624 -8 -270 -44 -419 -162 -660 -84 -173 -164 -284 -315
-436 -208 -210 -450 -350 -724 -420 -205 -52 -181 -51 -1013 -56 l-783 -4 0
-250 0 -249 723 0 c435 0 767 4 833 11 154 15 381 62 503 104 332 116 575 267
817 509 185 186 291 331 403 552 297 590 297 1308 0 1898 -114 225 -219 368
-413 561 -149 148 -238 218 -414 325 -425 258 -970 350 -1477 248 -100 -19
-308 -83 -393 -119 l-44 -19 -55 47 c-390 343 -788 534 -1268 609 -138 21
-490 27 -625 9z"/>
<path d="M3551 4176 l-715 -715 150 -156 c82 -86 160 -168 174 -184 l25 -28
418 418 417 418 -2 -1947 -3 -1947 248 -3 247 -2 0 1947 0 1948 416 -415 415
-415 174 180 c96 99 174 182 175 185 0 3 -321 326 -713 718 l-712 712 -714
-714z"/>
</g>
</svg>
